<svg
  data-name="Layer 2"
  xmlns="http://www.w3.org/2000/svg"
  viewBox="0 0 134.38 154.19"
>
  <g data-name="Layer 1">
    <path
      d="M112.6 116.34c1.2-1.02 1.74-1.96 2.48-3.56l19.3-42.92c-2.02-27.1-3.44-40.7-3.44-40.77 0-2.7-2.14-4.8-4.78-4.8s-4.73 2.1-4.78 4.7l-3.05 37.7-14.76 42.1c-.44.8-.7 1.8-.7 2.8 0 .83.2 1.64.5 2.4l10.43 40.12 11.55-3.1-12.75-34.67ZM21.77 116.34c-1.2-1.02-1.73-1.96-2.47-3.56L0 69.86c2.02-27.1 3.43-40.7 3.43-40.77 0-2.7 2.14-4.8 4.8-4.8s4.72 2.1 4.77 4.7l3.05 37.7 14.75 42.2c.45.8.7 1.8.7 2.8 0 .8-.18 1.6-.5 2.4l-10.4 40.1-11.55-3.1 12.72-34.75ZM113.01 54.79c0-3.9-.5-7.6-1.5-11.1C111.3 19.5 91.7 0 67.48 0S23.5 19.52 23.37 43.7c-1.05 3.52-1.6 7.23-1.6 11.05 0 16.54 10.43 30.9 25.6 37.72-.1 1.4-.1 2.82-.1 4.26 0 23.22 10.22 42.04 22.9 42.04s22.92-18.8 22.92-42.03c0-2.4-.13-4.71-.33-7.01 12.2-7.54 20.25-20.38 20.25-34.94Zm-70.17 6.38c-3.94 0-7.13-3.78-7.13-8.45s3.19-8.45 7.13-8.45 7.13 3.78 7.13 8.45-3.19 8.45-7.13 8.45Zm34.71 47.21c0 .07 0 .13-.01.2 0 .07.01.13.01.2 0 4.4-3.57 7.97-7.97 7.97h-.8c-4.4 0-7.97-3.57-7.97-7.97 0-.07 0-.13.01-.2 0-.07-.01-.13-.01-.2V93.24c0-4.62 3.75-8.37 8.37-8.37s8.37 3.75 8.37 8.37v15.14Zm14.7-47.21c-3.94 0-7.13-3.78-7.13-8.45s3.19-8.45 7.13-8.45 7.13 3.78 7.13 8.45-3.19 8.45-7.13 8.45Z"
    />
    <ellipse
      cx="69.18"
      cy="109.34"
      rx="8.37"
      ry="7.8"
      style="fill: none; stroke: currentColor"
    />
  </g>
</svg>
