<svg
  id="_Layer_2"
  data-name="Layer 2"
  xmlns="http://www.w3.org/2000/svg"
  viewBox="0 0 461.97 461.75"
>
  <g id="_Layer_1-2" data-name="Layer 1">
    <path
      d="M25.09 126.31c-33.19 65.17-34.9 146.28 3.62 216.07 6.7-42.53 24.09-83.32 70.93-116.12l60.74-105.21c-45.91-18.73-91-16.75-135.28 5.26ZM243.34 461.47c73.04-3.85 144.12-42.93 185.29-111.19-40.17 15.47-84.18 20.81-136-3.33H171.12c6.74 49.13 31 87.18 72.21 114.52Z"
    />
    <path
      d="M218.54.28C145.51 4.14 74.42 43.22 33.25 111.47c40.17-15.47 84.18-20.81 136 3.33H290.8C284.05 65.68 259.75 27.62 218.54.28Z"
    />
    <path
      d="M424.48 104.79C384.61 43.48 315.18 1.5 235.48 0c33.47 27.03 60.1 62.44 65.14 119.33l60.79 105.3c39.17-30.42 60.01-70.49 63.07-119.85ZM37.47 356.93c39.88 61.31 109.28 103.31 188.98 104.81-33.5-27.05-60.15-62.5-65.16-119.47l-60.74-105.2c-39.19 30.42-60.03 70.48-63.08 119.86Z"
    />
    <path
      d="M436.88 335.44c33.19-65.17 34.9-146.28-3.62-216.07-6.7 42.52-24.08 83.31-70.91 116.11L301.6 340.7c45.91 18.72 90.99 16.75 135.28-5.26Z"
    />
    <path
      fill="currentColor"
      d="M250.21 253.64c4.91 8.01 11.29 13.9 22.58 13.9 9.48 0 15.54-4.74 15.54-11.29 0-7.85-6.22-10.63-16.66-15.19l-5.72-2.45c-16.51-7.04-27.48-15.85-27.48-34.48 0-17.16 13.08-30.23 33.52-30.23 14.55 0 25.01 5.06 32.55 18.32l-17.82 11.44c-3.92-7.04-8.16-9.81-14.73-9.81s-10.95 4.25-10.95 9.81c0 6.87 4.25 9.64 14.07 13.9l5.72 2.45c19.44 8.34 30.42 16.84 30.42 35.95 0 20.6-16.19 31.89-37.92 31.89s-34.98-10.13-41.7-23.4l18.6-10.8Zm-80.84 1.98c3.6 6.38 6.87 11.77 14.73 11.77s12.26-2.94 12.26-14.38v-77.82h22.88v78.12c0 23.7-13.89 34.48-34.17 34.48-18.32 0-28.93-9.48-34.33-20.9l18.63-11.28Z"
    />
  </g>
</svg>
